<svg xmlns="http://www.w3.org/2000/svg" xmlns:xlink="http://www.w3.org/1999/xlink" width="512" height="512" x="0" y="0" viewBox="0 0 510 510" style="enable-background:new 0 0 512 512" xml:space="preserve" fill-rule="evenodd" class=""><g><path d="M267.823 390.661v66.345a7 7 0 0 1-7 7h-34.61V495a7 7 0 0 1-7 7H56.609a7 7 0 0 1-7-7v-30.994H15a7 7 0 0 1-7-7V333.644a45.9 45.9 0 0 1 13.434-32.447 45.862 45.862 0 0 1 32.437-13.442h112.747a196.11 196.11 0 0 1-4.938-10.256 67.234 67.234 0 0 1-23.769 4.314c-37.237 0-67.471-30.244-67.471-67.498 0-37.255 30.234-67.499 67.471-67.499 3.062 0 6.076.204 9.03.6V62.027a7 7 0 0 1 6.447-6.978c46.298-3.668 86.579-23.98 117.055-45.745A6.998 6.998 0 0 1 274.511 8h99.919c1.459 0 2.881.456 4.068 1.304 30.476 21.765 70.757 42.077 117.055 45.745A7 7 0 0 1 502 62.027v148.986c0 49.877-25.109 95.863-59.883 131.822-34.461 35.634-78.334 61.359-115.821 71.416a6.993 6.993 0 0 1-3.627 0c-17.435-4.676-36.246-12.725-54.846-23.59zm-141.47-64.114a6.968 6.968 0 0 1-3.859-2.565l-16.778-22.227H53.871a31.865 31.865 0 0 0-22.535 9.339A31.898 31.898 0 0 0 22 333.644v116.362h27.609v-90.097c0-3.864 3.137-7 7-7 3.864 0 7 3.136 7 7V488h148.604V359.909c0-3.864 3.137-7 7-7 3.864 0 7 3.136 7 7v90.097h27.61V333.644a31.898 31.898 0 0 0-9.336-22.55 31.865 31.865 0 0 0-22.535-9.339h-51.845l-16.778 22.227a6.97 6.97 0 0 1-3.86 2.565c-.056 1-.24 1.967-.536 2.884a6.988 6.988 0 0 1 2.924 5.204l7.709 108.223a7 7 0 0 1-.92 3.996l-14.672 25.424a6.998 6.998 0 0 1-12.125 0l-14.673-25.424a7.002 7.002 0 0 1-.922-3.949l7.003-108.8a6.995 6.995 0 0 1 3.387-5.554 11.592 11.592 0 0 1-.291-2.004zm16.058-11.339 10.155-13.453h-29.309l10.155 13.453a11.524 11.524 0 0 1 4.499-.909c1.596 0 3.116.324 4.5.909zm-4.388 22.255h-.112c-.282 0-.562-.01-.839-.03l-6.711 104.258 7.55 13.084 7.538-13.062zm79.64-49.708h4.289a45.862 45.862 0 0 1 32.437 13.442 45.9 45.9 0 0 1 13.434 32.447v5.196c18.079 13.463 37.611 24.025 56.66 30.487 38.203-12.956 78.368-42.338 104.794-78.723 17.645-24.294 29.201-51.745 29.201-79.591V93.314c-34.043-7.659-66.219-22.452-95.391-41.769h-77.232c-29.172 19.317-61.329 34.11-95.369 41.768v78.713c9.317 11.575 14.897 26.285 14.897 42.289 0 11.993-3.134 23.259-8.625 33.024 4.754 14.049 11.976 27.654 20.905 40.416zm173.422-139.903c8.354-6.784 20.646-5.51 27.431 2.844 6.784 8.354 5.51 20.645-2.844 27.43L299.066 272.83a19.502 19.502 0 0 1-28.483-4.267l-41.21-61.374c-5.999-8.935-3.616-21.06 5.319-27.06 8.935-5.999 21.06-3.616 27.059 5.319l29.305 43.645zm8.826 10.868-105.98 86.073a7 7 0 0 1-10.224-1.531l-33.579-50.009a5.503 5.503 0 0 0-7.632-1.501 5.504 5.504 0 0 0-1.5 7.633l41.21 61.374a5.499 5.499 0 0 0 8.034 1.203l116.606-94.703c2.357-1.914 2.716-5.381.802-7.737s-5.38-2.716-7.737-.802zm-247.842 3.995a53.414 53.414 0 0 0-14.158-1.899c-29.512 0-53.471 23.973-53.471 53.499 0 29.525 23.959 53.498 53.471 53.498 29.513 0 53.472-23.973 53.472-53.498 0-24.612-16.648-45.365-39.282-51.592l-.032-.008zm115.754 193.317v18.266c19.071 11.957 38.598 20.859 56.66 25.933 35.021-9.842 75.555-34.023 107.57-67.128C464.308 299.749 488 257.277 488 211.013V68.391C442.561 63.335 402.827 43.544 372.201 22H276.74c-30.625 21.544-70.36 41.335-115.799 46.391v82.465a67.284 67.284 0 0 1 15.545 8.087V87.647a7 7 0 0 1 5.624-6.864c35.021-7.023 68.015-22.106 97.724-42.05l.502.924.007-.019c.056-.405.195-.767.434-1.071.126-.293.204-.457.204-.457.44-.189.889-.328 1.341-.422a5.8 5.8 0 0 1 .981-.131c.186-.011.372-.015.558-.012h81.345c1.39 0 2.748.414 3.902 1.188 29.709 19.944 62.724 35.027 97.747 42.05 4.094.945 5.567 2.252 5.623 6.901V211.013c0 30.685-12.429 61.046-31.874 87.818-28.675 39.482-72.598 71.146-113.967 84.53a7.004 7.004 0 0 1-4.31 0c-18.178-5.881-36.851-15.279-54.504-27.329zm-93.616-84.821a184.307 184.307 0 0 0 8.335 16.544h18.317c-5.497-8.718-10.226-17.749-14.015-26.987a67.84 67.84 0 0 1-12.637 10.443z"></path></g></svg>