<svg xmlns="http://www.w3.org/2000/svg" xmlns:xlink="http://www.w3.org/1999/xlink" x="0" y="0" viewBox="0 0 66 66" style="enable-background:new 0 0 512 512" xml:space="preserve" class=""><g><path d="M38.38 25.84c-.5.24-.7.84-.46 1.34s.84.71 1.34.46c3.86-1.88 6.35-5.87 6.35-10.15 0-6.22-5.06-11.29-11.29-11.29s-11.29 5.06-11.29 11.29 5.06 11.29 11.29 11.29c.55 0 1-.45 1-1s-.45-1-1-1c-5.12 0-9.29-4.17-9.29-9.29S29.2 8.2 34.32 8.2s9.29 4.17 9.29 9.29c0 3.52-2.05 6.8-5.23 8.35z"></path><path d="M34.33 13.95c.7 0 1.26.57 1.26 1.26 0 .55.45 1 1 1s1-.45 1-1c0-1.45-.96-2.67-2.26-3.09v-.74c0-.55-.45-1-1-1s-1 .45-1 1v.74c-1.31.43-2.26 1.64-2.26 3.09 0 1.8 1.46 3.26 3.26 3.26.7 0 1.26.57 1.26 1.26s-.57 1.26-1.26 1.26-1.26-.57-1.26-1.26c0-.55-.45-1-1-1s-1 .45-1 1c0 1.45.96 2.67 2.26 3.09v.74c0 .55.45 1 1 1s1-.45 1-1v-.74c1.31-.43 2.26-1.64 2.26-3.09 0-1.8-1.46-3.26-3.26-3.26a1.261 1.261 0 0 1 0-2.52z"></path><path d="M60.71 31.08H39.89c-2.14 0-3.88 1.75-3.88 3.89v10.71H24.64c-.55 0-1 .45-1 1s.45 1 1 1H36v3.07H24.64c-.55 0-1 .45-1 1s.45 1 1 1H36v7.5H16.66V2.94h33.47c1.03 0 1.86.84 1.86 1.86v23.56c0 .55.45 1 1 1s1-.45 1-1V4.81c0-2.13-1.73-3.86-3.86-3.86H8.01c-2.13 0-3.86 1.73-3.86 3.86v3.16H2.4c-.55 0-1 .45-1 1s.45 1 1 1h1.74v5.54H2.4c-.55 0-1 .45-1 1s.45 1 1 1h1.74v5.54H2.4c-.55 0-1 .45-1 1s.45 1 1 1h1.74v5.54H2.4c-.55 0-1 .45-1 1s.45 1 1 1h1.74v5.54H2.4c-.55 0-1 .45-1 1s.45 1 1 1h1.74v5.54H2.4c-.55 0-1 .45-1 1s.45 1 1 1h1.74v5.54H2.4c-.55 0-1 .45-1 1s.45 1 1 1h1.74v3.16c0 2.13 1.73 3.86 3.86 3.86h28.17c.47 1.62 1.95 2.81 3.71 2.81H60.7c2.15 0 3.89-1.74 3.89-3.88v-26.2c.01-2.13-1.74-3.88-3.88-3.88zM6.15 58.38v-3.16h3.74c.55 0 1-.45 1-1s-.45-1-1-1H6.15v-5.54h3.74c.55 0 1-.45 1-1s-.45-1-1-1H6.15v-5.54h3.74c.55 0 1-.45 1-1s-.45-1-1-1H6.15V32.6h3.74c.55 0 1-.45 1-1s-.45-1-1-1H6.15v-5.54h3.74c.55 0 1-.45 1-1s-.45-1-1-1H6.15v-5.54h3.74c.55 0 1-.45 1-1s-.45-1-1-1H6.15V9.97h3.74c.55 0 1-.45 1-1s-.45-1-1-1H6.15V4.81c0-1.03.84-1.86 1.86-1.86h6.65v57.3H8.01c-1.03 0-1.86-.84-1.86-1.87zm56.45 2.79c0 1.04-.85 1.88-1.89 1.88H39.89c-1.04 0-1.88-.84-1.88-1.88v-26.2c0-1.04.84-1.89 1.88-1.89h20.82c1.04 0 1.89.85 1.89 1.89z"></path><path d="M41.2 44.1h18.08c.55 0 1-.45 1-1v-6.76c0-.55-.45-1-1-1H41.2c-.55 0-1 .45-1 1v6.76c0 .55.44 1 1 1zm1-6.77h16.08v4.76H42.2zM46.06 53.31h-3.44c-1.34 0-2.42 1.09-2.42 2.43v2.64a2.43 2.43 0 0 0 2.42 2.43h3.44c1.34 0 2.42-1.09 2.42-2.43v-2.64a2.43 2.43 0 0 0-2.42-2.43zm.42 5.07c0 .23-.19.43-.42.43h-3.44c-.23 0-.42-.19-.42-.43v-2.64c0-.23.19-.43.42-.43h3.44c.23 0 .42.19.42.43zM57.98 53.31h-3.44c-1.34 0-2.43 1.09-2.43 2.43v2.64c0 1.34 1.09 2.43 2.43 2.43h3.44c1.34 0 2.43-1.09 2.43-2.43v-2.64c0-1.34-1.09-2.43-2.43-2.43zm.43 5.07c0 .23-.19.43-.43.43h-3.44c-.23 0-.43-.19-.43-.43v-2.64c0-.23.19-.43.43-.43h3.44c.23 0 .43.19.43.43zM46.06 44.95h-3.44c-1.34 0-2.42 1.09-2.42 2.44v2.64c0 1.34 1.09 2.42 2.42 2.42h3.44c1.34 0 2.42-1.09 2.42-2.42v-2.64c0-1.35-1.09-2.44-2.42-2.44zm.42 5.08c0 .23-.19.42-.42.42h-3.44c-.23 0-.42-.19-.42-.42v-2.64c0-.24.19-.44.42-.44h3.44c.24 0 .42.19.42.44zM57.98 44.95h-3.44c-1.34 0-2.43 1.09-2.43 2.44v2.64c0 1.34 1.09 2.42 2.43 2.42h3.44a2.43 2.43 0 0 0 2.43-2.42v-2.64c0-1.35-1.09-2.44-2.43-2.44zm.43 5.08c0 .23-.19.42-.43.42h-3.44c-.23 0-.43-.19-.43-.42v-2.64c0-.24.19-.44.43-.44h3.44c.24 0 .43.19.43.44z"></path></g></svg>