<svg xmlns="http://www.w3.org/2000/svg" xmlns:xlink="http://www.w3.org/1999/xlink" x="0" y="0" viewBox="0 0 512 512" style="enable-background:new 0 0 512 512" xml:space="preserve" class=""><g><path d="M286.921 264.405v-101.65c0-15.92 2.532-20.877 18.354-20.877h26.969l22.585 74.004c-13.597 1.454-20.692 12.762-20.692 23.945 0 12.207 8.196 24.565 23.867 24.565l47.666-.05.22 31.478c.005.828-.389 1.742-1.029 2.387-.274.276-.835.74-1.508.74h-75.855c-1.406 0-2.594-1.175-2.594-2.565V176.335a5.003 5.003 0 0 0-10.006 0v88.072c0 9.505-6.957 13.759-13.852 13.759-7.031 0-14.126-4.254-14.126-13.759zM133.143 133.649c-.803 1.464-1.728 5.212-1.27 9.561.37 3.506 1.444 5.239 1.878 5.492 28.864 6.018 56.173 6.029 81.085.006.113-.028.832-.599 1.416-2.625 1.288-4.469.435-10.259-.662-12.482-29.031 6.012-56.037 6.029-82.448.049zm74.566-8.73c11.433-13.715 15.563-31.752 12.664-35.166-.364-.426-3.121-.484-8.804 3.106l-7.744 4.878c-6.679 4.233-10.37 3.641-14.484 1.187l-11.169-6.614c-3.128-1.878-4.557-1.877-7.662-.015l-11.147 6.604c-4.122 2.483-7.824 3.089-14.542-1.168l-7.728-4.869c-5.689-3.592-8.448-3.535-8.81-3.107-2.917 3.449 1.276 21.593 12.833 35.319 21.386 4.078 43.306 4.027 66.593-.155zm157.717-.691c27.886 0 50.573-22.701 50.573-50.605S393.312 23.05 365.426 23.05s-50.573 22.687-50.573 50.573 22.687 50.605 50.573 50.605zm29.373 130.119-34.324-112.469h-17.769l34.33 112.488zm-1.326-38.626h17.988a5.003 5.003 0 0 1 0 10.006h-14.934l8.731 28.609 6.482-.007h.005c.352 0 .694.038 1.026.107 4.276.125 13.078-.105 21.413-.36 5.197-.149 9.749-6.74 9.749-14.104v-77.216c0-15.92-2.532-20.877-18.354-20.877h-54.641l22.536 73.843zm-49.329 24.105c0 7.247 4.284 14.559 13.855 14.559l8.578-.009-8.743-28.65h-.004c-9.454 0-13.686 7.082-13.686 14.1zM75.021 342.989a9.164 9.164 0 0 0-5.621-4.303 9.41 9.41 0 0 0-2.44-.324 9.15 9.15 0 0 0-4.601 1.24l-34.731 20.294c-2.13 1.225-3.657 3.223-4.299 5.625-.641 2.396-.316 4.881.914 6.996l70.166 121.535c1.228 2.136 3.226 3.664 5.629 4.31 2.399.646 4.89.328 7.01-.897 0 0 25.808-14.979 26.274-15.395l8.473-4.892a9.227 9.227 0 0 0 4.305-5.639 9.184 9.184 0 0 0-.917-7.023L75.022 342.989zm401.073-12.758c-6.654-11.498-21.431-15.457-32.937-8.824l-115.283 66.556c-12.003 6.945-16.82 8.613-25.609 6.286l-12.522-3.315c-.05-.012-.1-.016-.15-.029l-81.61-21.628a5.004 5.004 0 0 1 2.563-9.673l81.231 21.528c.03.007.061.006.091.014h.002l.019.005c10.989 2.889 21.841-3.256 24.708-14.004 2.923-10.939-3.593-22.231-14.524-25.175L193.91 313.004a4.575 4.575 0 0 1-.282-.085c-6.309-2.095-14.715-1.252-20.444 2.052L96.09 359.47l45.354 78.558 12.675-7.337c8.87-5.127 14.685-4.347 23.208-2.453.07.015.14.032.209.051l107.858 28.885c8.355 2.237 17.118 1.074 24.669-3.273l157.204-90.762c11.506-6.635 15.464-21.398 8.826-32.909zm-363.516-69.098c-11.427-24.047 3.003-75.757 22.712-101.944 13.891 2.679 27.437 4.035 40.555 4.035 12.521 0 24.656-1.221 36.336-3.662 19.971 26.408 34.855 78.099 23.6 101.846-3.736 7.882-9.97 11.714-19.058 11.714h-84.785c-9.193 0-15.526-3.922-19.359-11.989zm39.769-56.765c0 14.923 13.449 17.48 20.674 18.854 9.288 1.766 9.288 2.673 9.288 5.098 0 2.355-3.407 4.989-7.966 4.989-3.755 0-6.29-1.678-7.319-3.115a7.002 7.002 0 1 0-11.383 8.157c2.752 3.84 6.895 6.619 11.701 7.992v3.01a7.001 7.001 0 0 0 14.002 0v-3.036c8.69-2.534 14.967-9.641 14.967-17.997 0-14.923-13.449-17.481-20.675-18.855-9.288-1.766-9.288-2.673-9.288-5.098 0-2.342 3.418-4.961 7.994-4.961 3.936 0 6.704 1.853 7.609 3.573a7.002 7.002 0 0 0 12.392-6.522c-2.541-4.827-7.317-8.415-13-10.057v-3.066a7.001 7.001 0 0 0-14.002 0v3.06c-8.705 2.528-14.995 9.627-14.995 17.973z"></path></g></svg>