<svg xmlns="http://www.w3.org/2000/svg" xmlns:xlink="http://www.w3.org/1999/xlink" width="512" height="512" x="0" y="0" viewBox="0 0 512 512" style="enable-background:new 0 0 512 512" xml:space="preserve" class=""><g><path d="M17.5 218.927c-5.523 0-10 4.477-10 10v263.572c0 5.523 4.477 10 10 10h98.381V218.927H17.5zM241.587 502.499h-31.681v-53.935a3 3 0 0 1 3-3h25.681a3 3 0 0 1 3 3v53.935z" style="stroke-width:15;stroke-linecap:round;stroke-linejoin:round;stroke-miterlimit:10;" fill="none" stroke="#ffffff" stroke-width="15" stroke-linecap="round" stroke-linejoin="round" stroke-miterlimit="10" data-original="#000000" opacity="1"></path><path d="M375.585 264.487a2.987 2.987 0 0 0-1.622 2.65v40.935a3 3 0 0 0 3 3h25.681a3 3 0 0 0 3-3v-40.935c0-1.157-.663-2.15-1.623-2.65" style="stroke-width:15;stroke-linejoin:round;stroke-miterlimit:10;" fill="none" stroke="#ffffff" stroke-width="15" stroke-linejoin="round" stroke-miterlimit="10" data-original="#000000" opacity="1"></path><path d="M402.644 409.635h-25.681a3 3 0 0 1-3-3V365.7a3 3 0 0 1 3-3h25.681a3 3 0 0 1 3 3v40.935a3 3 0 0 1-3 3zM358.334 135.295l27.24 28.603 38.138-42.904" style="stroke-width:15;stroke-linecap:round;stroke-linejoin:round;stroke-miterlimit:10;" fill="none" stroke="#ffffff" stroke-width="15" stroke-linecap="round" stroke-linejoin="round" stroke-miterlimit="10" data-original="#000000" opacity="1"></path><path d="M346.073 247.448c-43.914-25.354-70.967-72.209-70.967-122.917V80.326c0-3.893 2.077-7.49 5.448-9.437L384.355 10.96a10.898 10.898 0 0 1 10.896 0l103.801 59.929a10.897 10.897 0 0 1 5.448 9.437v44.206c0 50.708-27.052 97.563-70.967 122.917l-38.282 22.102a10.898 10.898 0 0 1-10.896 0l-38.282-22.103z" style="stroke-width:15;stroke-linecap:round;stroke-linejoin:round;stroke-miterlimit:10;" fill="none" stroke="#ffffff" stroke-width="15" stroke-linecap="round" stroke-linejoin="round" stroke-miterlimit="10" data-original="#000000" opacity="1"></path><path d="M334.186 87.108 317.33 96.84a2.724 2.724 0 0 0-1.362 2.359v25.332a101.072 101.072 0 0 0 50.535 87.53l21.938 12.666a2.722 2.722 0 0 0 2.724 0l21.938-12.665a101.07 101.07 0 0 0 50.537-87.53V99.199c0-.973-.519-1.873-1.362-2.359l-71.112-41.056a2.722 2.722 0 0 0-2.724 0l-23.87 13.781M176.587 221.896h-25.681a3 3 0 0 1-3-3v-40.935a3 3 0 0 1 3-3h25.681a3 3 0 0 1 3 3v40.935a3 3 0 0 1-3 3zM176.587 315.766h-25.681a3 3 0 0 1-3-3v-40.935a3 3 0 0 1 3-3h25.681a3 3 0 0 1 3 3v40.935a3 3 0 0 1-3 3zM176.587 409.635h-25.681a3 3 0 0 1-3-3V365.7a3 3 0 0 1 3-3h25.681a3 3 0 0 1 3 3v40.935a3 3 0 0 1-3 3zM238.587 221.896h-25.681a3 3 0 0 1-3-3v-40.935a3 3 0 0 1 3-3h25.681a3 3 0 0 1 3 3v40.935a3 3 0 0 1-3 3zM238.587 315.766h-25.681a3 3 0 0 1-3-3v-40.935a3 3 0 0 1 3-3h25.681a3 3 0 0 1 3 3v40.935a3 3 0 0 1-3 3zM238.587 409.635h-25.681a3 3 0 0 1-3-3V365.7a3 3 0 0 1 3-3h25.681a3 3 0 0 1 3 3v40.935a3 3 0 0 1-3 3zM300.587 315.766h-25.681a3 3 0 0 1-3-3v-40.935a3 3 0 0 1 3-3h25.681a3 3 0 0 1 3 3v40.935a3 3 0 0 1-3 3zM300.587 409.635h-25.681a3 3 0 0 1-3-3V365.7a3 3 0 0 1 3-3h25.681a3 3 0 0 1 3 3v40.935a3 3 0 0 1-3 3zM74.531 311.072H48.85a3 3 0 0 1-3-3v-40.935a3 3 0 0 1 3-3h25.681a3 3 0 0 1 3 3v40.935a3 3 0 0 1-3 3zM74.531 409.635H48.85a3 3 0 0 1-3-3V365.7a3 3 0 0 1 3-3h25.681a3 3 0 0 1 3 3v40.935a3 3 0 0 1-3 3zM275.106 96.33H125.881c-5.523 0-10 4.477-10 10v32.027" style="stroke-width:15;stroke-linecap:round;stroke-linejoin:round;stroke-miterlimit:10;" fill="none" stroke="#ffffff" stroke-width="15" stroke-linecap="round" stroke-linejoin="round" stroke-miterlimit="10" data-original="#000000" opacity="1"></path><path d="M115.881 173.357v329.142h219.732V240.763M335.613 240.763v261.736h98.381c5.523 0 10-4.477 10-10v-36.656" style="stroke-width:15;stroke-linecap:round;stroke-linejoin:round;stroke-miterlimit:10;" fill="none" stroke="#ffffff" stroke-width="15" stroke-linecap="round" stroke-linejoin="round" stroke-miterlimit="10" data-original="#000000" opacity="1"></path><path d="M284.369 174.961h-9.463a3 3 0 0 0-3 3v40.935a3 3 0 0 0 3 3h25.681a3 3 0 0 0 3-3v-9.102" style="stroke-width:15;stroke-linejoin:round;stroke-miterlimit:10;" fill="none" stroke="#ffffff" stroke-width="15" stroke-linejoin="round" stroke-miterlimit="10" data-original="#000000" opacity="1"></path><path d="M443.994 420.843v-180.08" style="stroke-width:15;stroke-linecap:round;stroke-linejoin:round;stroke-miterlimit:10;" fill="none" stroke="#ffffff" stroke-width="15" stroke-linecap="round" stroke-linejoin="round" stroke-miterlimit="10" data-original="#000000" opacity="1"></path></g></svg>