<svg xmlns="http://www.w3.org/2000/svg" xmlns:xlink="http://www.w3.org/1999/xlink" x="0" y="0" viewBox="0 0 512 512" style="enable-background:new 0 0 512 512" xml:space="preserve" class=""><g><path d="M127.891 445.988H16.074a7.045 7.045 0 0 1-7.054-7.602c3.92-52.252 47.9-93.793 101.111-93.793 25.659 0 49.169 9.662 67.079 25.523-24.389 18.36-42.297 45.017-49.319 75.872zm375.088-7.602c-3.92-52.252-47.899-93.793-101.11-93.793-25.659 0-49.169 9.662-67.078 25.523 24.388 18.359 42.296 45.016 49.318 75.871h111.817a7.043 7.043 0 0 0 7.053-7.601zM347.068 284.501c0 30.266 24.535 54.8 54.801 54.8s54.8-24.535 54.8-54.8-24.535-54.801-54.8-54.801-54.801 24.536-54.801 54.801zm-236.937 54.801c30.266 0 54.801-24.535 54.801-54.8s-24.535-54.801-54.801-54.801c-30.265 0-54.8 24.535-54.8 54.801 0 30.265 24.535 54.8 54.8 54.8zm77.212-96.288 4.544 3.266a78.796 78.796 0 0 1 13.908-15.107l-6.56-4.715c-20.973-15.074-32.196-36.906-32.196-62.741l.018-71.687a7.978 7.978 0 0 1 3.982-6.906C196.614 70.232 225.91 57.291 256 57.291c29.908 0 59.031 12.786 84.479 27.552a8 8 0 0 1 4.481 7.186v71.687c0 25.835-11.223 47.667-32.196 62.741l-6.56 4.715a78.833 78.833 0 0 1 13.909 15.107l4.543-3.266c26.346-18.937 40.659-46.851 40.659-79.297V76.083C323.884 49.985 289.942 36.936 256 36.936s-67.884 13.048-109.315 39.146v87.634c0 32.447 14.312 60.36 40.658 79.298zM256 359.695c-60.544 0-110.585 47.265-115.046 106.719a8.015 8.015 0 0 0 8.026 8.65h214.04a8.016 8.016 0 0 0 8.026-8.65C366.585 406.96 316.544 359.695 256 359.695zm0-6.021c34.437 0 62.353-27.916 62.353-62.353S290.436 228.968 256 228.968s-62.353 27.917-62.353 62.353 27.916 62.353 62.353 62.353zM219.972 221.73l-11.424-8.211c-16.886-12.137-25.508-29.015-25.508-49.803V96.642c22.073-12.46 47.208-23.351 72.96-23.351s50.888 10.891 72.96 23.351v67.075c0 20.788-8.623 37.667-25.509 49.803l-11.424 8.211c-10.787-5.597-23.038-8.763-36.028-8.763s-25.24 3.165-36.027 8.762zm12.72-23.376c5.959 5.799 15.492 5.734 21.371-.177l51.706-52.191c5.918-5.951 5.892-15.573-.059-21.492-5.951-5.918-15.573-5.891-21.492.06l-41.117 41.502-15.498-15.107c-6.017-5.852-15.639-5.719-21.492.297-5.853 6.017-5.719 15.639.298 21.491z"></path></g></svg>