<svg xmlns="http://www.w3.org/2000/svg" xmlns:xlink="http://www.w3.org/1999/xlink" x="0" y="0" viewBox="0 0 128 128" style="enable-background:new 0 0 512 512" xml:space="preserve" class=""><g><g><path d="M39.254 44.363a4.764 4.764 0 0 1 1.735-1.224c.676-.28 1.444-.42 2.304-.42.834 0 1.521.118 2.06.356.539.237.967.53 1.284.878.317.35.706.864 1.165 1.545.167.213.373.38.62.498.247.119.503.178.771.178a1.79 1.79 0 0 0 1.246-.469c.347-.313.52-.69.52-1.134 0-.412-.15-.883-.451-1.414-.301-.529-.747-1.031-1.34-1.506-.593-.476-1.365-.869-2.317-1.183-.953-.312-2.047-.468-3.282-.468-1.503 0-2.848.208-4.033.624-1.185.415-2.191 1.014-3.018 1.798s-1.453 1.737-1.879 2.861C34.213 46.408 34 47.647 34 49c0 1.377.219 2.625.658 3.74a7.874 7.874 0 0 0 1.885 2.85c.818.783 1.808 1.382 2.968 1.793s2.446.617 3.857.617c1.211 0 2.33-.13 3.357-.392 1.026-.261 2.095-.678 3.206-1.246.384-.198.699-.404.946-.617.246-.214.415-.454.507-.72s.138-.619.138-1.063v-3.337c0-.601-.111-1.052-.332-1.353s-.511-.494-.87-.583c-.359-.087-.798-.13-1.315-.13h-4.22c-.51 0-.913.127-1.209.379a1.217 1.217 0 0 0-.445.964c0 .474.178.811.533 1.009s.878.297 1.572.297h2.88v2.825c-.776.396-1.542.701-2.298.915a8.903 8.903 0 0 1-2.424.32c-1.77 0-3.149-.55-4.139-1.65-.99-1.101-1.484-2.672-1.484-4.714 0-.942.128-1.801.382-2.576.254-.774.621-1.431 1.101-1.965zM64.315 54.683c-.689.485-1.584.729-2.686.729-.802 0-1.449-.12-1.942-.361s-.874-.549-1.146-.92a6.898 6.898 0 0 1-.758-1.39c-.192-.467-.424-.819-.695-1.057a1.46 1.46 0 0 0-.996-.357c-.484 0-.883.153-1.196.458-.313.304-.469.67-.469 1.098 0 .736.261 1.494.783 2.274a5.859 5.859 0 0 0 2.035 1.87c1.177.649 2.672.973 4.484.973 1.511 0 2.818-.237 3.919-.713 1.102-.475 1.94-1.131 2.511-1.97.572-.84.858-1.785.858-2.839 0-.878-.165-1.62-.495-2.226s-.789-1.105-1.378-1.502c-.589-.396-1.303-.732-2.142-1.01a29.558 29.558 0 0 0-2.812-.76 49.567 49.567 0 0 1-1.778-.45 5.803 5.803 0 0 1-1.064-.428 2.51 2.51 0 0 1-.827-.653c-.2-.254-.3-.555-.3-.902 0-.562.294-1.043.883-1.443.588-.399 1.363-.6 2.323-.6 1.035 0 1.786.185 2.254.553.467.368.868.88 1.202 1.537.259.46.499.79.72.991.221.202.545.304.97.304.468 0 .859-.169 1.171-.505.313-.337.47-.714.47-1.134 0-.459-.126-.93-.376-1.413s-.647-.943-1.189-1.384c-.542-.439-1.226-.791-2.048-1.057-.821-.263-1.796-.396-2.923-.396-1.411 0-2.639.201-3.682.6-1.044.399-1.842.972-2.393 1.716s-.827 1.595-.827 2.553c0 1.006.261 1.847.783 2.523.521.677 1.227 1.211 2.116 1.602.889.392 1.993.734 3.312 1.027.985.213 1.773.416 2.361.604.589.191 1.069.466 1.44.825.372.361.558.829.558 1.407.002.73-.343 1.338-1.031 1.826zM80.039 55.852V43.206h4.058c.634 0 1.11-.133 1.427-.398s.476-.616.476-1.05c0-.436-.157-.788-.47-1.058-.313-.268-.791-.403-1.434-.403H72.274c-.61 0-1.075.131-1.396.392-.322.261-.482.617-.482 1.069 0 .435.154.785.463 1.05.309.266.781.398 1.415.398h4.058v12.646c0 .72.173 1.258.52 1.614.345.356.794.534 1.346.534.542 0 .985-.177 1.327-.528.342-.352.514-.893.514-1.62zM50.891 91.664a1.998 1.998 0 0 0 2.773-.555l16-24a2 2 0 1 0-3.328-2.218l-16 24a2 2 0 0 0 .555 2.773zM48 78a7 7 0 0 0 7-7.001A7 7 0 0 0 48 64a7 7 0 0 0-7 6.999A7 7 0 0 0 48 78zm0-10c1.654 0 3 1.346 3 2.999C51 72.653 49.654 74 48 74s-3-1.347-3-3.001A3.003 3.003 0 0 1 48 68zM72 92a7 7 0 1 0 0-14 7 7 0 0 0 0 14zm0-10c1.654 0 3 1.346 3 3s-1.346 3-3 3-3-1.346-3-3 1.346-3 3-3z"></path><path d="m106.405 105.565 3.595-3.702V31L77 0H17.921C13.546 0 10 3.582 10 8v112c0 4.418 3.546 8 7.921 8h84.158c4.375 0 7.921-3.582 7.921-8v-1.075a5.992 5.992 0 0 1-3.424 1.075c-.193 0-.384-.035-.576-.054V120c0 2.206-1.759 4-3.921 4H17.921c-2.162 0-3.921-1.794-3.921-4V8c0-2.206 1.759-4 3.921-4H74v19.69C74 29.375 78.513 34 84.06 34H106v71.182zM84.06 30C80.719 30 78 27.169 78 23.69V6.429L103.093 30z"></path><path d="M127.394 92.565a2 2 0 0 0-2.828.041l-18.046 18.582-11.143-10.573a2 2 0 1 0-2.753 2.902l12.577 11.934a1.998 1.998 0 0 0 2.811-.057l19.423-20a2.003 2.003 0 0 0-.041-2.829z"></path></g></g></svg>