<svg xmlns="http://www.w3.org/2000/svg" xmlns:xlink="http://www.w3.org/1999/xlink" x="0" y="0" viewBox="0 0 64 64" style="enable-background:new 0 0 512 512" xml:space="preserve" class=""><g><path d="M14 23a1 1 0 0 1-1-1V8a1 1 0 0 1 2 0v14a1 1 0 0 1-1 1ZM55.785 62H19a6.006 6.006 0 0 1-6-6v-4a1 1 0 0 1 2 0v4a4 4 0 0 0 8 0 3.963 3.963 0 0 0-.412-1.77 2.852 2.852 0 0 1 .15-2.785A3.029 3.029 0 0 1 25.323 50H56a6 6 0 0 1 5.972 6.586A6.163 6.163 0 0 1 55.785 62Zm-32.354-2h32.354a4.149 4.149 0 0 0 4.2-3.6A4 4 0 0 0 56 52H25.323a1.055 1.055 0 0 0-.886.5.847.847 0 0 0-.056.843 5.931 5.931 0 0 1-.95 6.657ZM40.3 32H30a1 1 0 0 1 0-2h10.3a1 1 0 0 1 0 2ZM48 38H31a1 1 0 0 1 0-2h17a1 1 0 0 1 0 2ZM48 44H31a1 1 0 0 1 0-2h17a1 1 0 0 1 0 2Z"></path><path d="M56 52a1 1 0 0 1-1-1V8a4 4 0 0 0-4-4H9a1 1 0 0 1 0-2h42a6.006 6.006 0 0 1 6 6v43a1 1 0 0 1-1 1Z"></path><path d="M14 14H9a6 6 0 1 1 6-6 1 1 0 0 1-2 0 4 4 0 1 0-4 4h5a1 1 0 0 1 0 2ZM27 23a1 1 0 0 1-1-1v-8a1 1 0 0 1 2 0v8a1 1 0 0 1-1 1Z"></path><path d="M30 15h-6a1 1 0 1 1 0-2h6a1 1 0 0 1 0 2ZM31 23a1.029 1.029 0 0 1-.351-.063 1 1 0 0 1-.586-1.289l3-8a1 1 0 0 1 1.874.7l-3 8A1 1 0 0 1 31 23Z"></path><path d="M37 23a1 1 0 0 1-.937-.648l-3-8a1 1 0 0 1 1.874-.7l3 8a1 1 0 0 1-.586 1.289A1.029 1.029 0 0 1 37 23ZM46 23a1 1 0 0 1-.8-.4l-6-8a1 1 0 0 1 1.6-1.2l6 8A1 1 0 0 1 46 23Z"></path><path d="M40 23a1 1 0 0 1-.8-1.6l6-8a1 1 0 1 1 1.6 1.2l-6 8a1 1 0 0 1-.8.4ZM36 21h-4a1 1 0 0 1 0-2h4a1 1 0 0 1 0 2ZM15 50a13 13 0 1 1 13-13 13.015 13.015 0 0 1-13 13Zm0-24a11 11 0 1 0 11 11 11.013 11.013 0 0 0-11-11Z"></path><path d="M15 44a4 4 0 0 1-4-4 1 1 0 0 1 2 0 2 2 0 1 0 2-2 4 4 0 1 1 4-4 1 1 0 0 1-2 0 2 2 0 1 0-2 2 4 4 0 0 1 0 8Z"></path><path d="M15 32a1 1 0 0 1-1-1v-2a1 1 0 0 1 2 0v2a1 1 0 0 1-1 1ZM15 46a1 1 0 0 1-1-1v-2a1 1 0 0 1 2 0v2a1 1 0 0 1-1 1Z"></path></g></svg>