<svg xmlns="http://www.w3.org/2000/svg" xmlns:xlink="http://www.w3.org/1999/xlink" x="0" y="0" viewBox="0 0 512 512" style="enable-background:new 0 0 512 512" xml:space="preserve" class=""><g><g data-name="OUTLINE"><path d="m459.724 216.783-7.702-28.758 25.547-28.059-27.667-47.883-37.04 8.115-21.059-21.06 8.115-37.04-47.883-27.668-28.06 25.548-28.758-7.702L283.643 16h-55.287l-11.573 36.276-28.758 7.702-28.059-25.547-47.883 27.667 8.115 37.04-21.06 21.059-37.04-8.115-27.668 47.883 25.548 28.06-7.702 28.758L16 228.357v55.287l36.276 11.573 7.702 28.758-25.547 28.059 27.667 47.883 37.04-8.115 7.205 7.206 11.314-11.314-13.394-13.394-34.163 7.484-15.964-27.627 23.559-25.876-12.226-45.649L32 271.954v-31.908l33.469-10.678 12.227-45.649-23.56-25.877L70.1 130.215l34.163 7.484 33.437-33.436-7.484-34.163 27.627-15.964 25.876 23.559 45.649-12.226L240.046 32h31.908l10.678 33.469 45.649 12.227 25.877-23.56L381.785 70.1l-7.484 34.163 33.436 33.437 34.163-7.484 15.964 27.627-23.559 25.876 12.226 45.649L480 240.046v31.908l-33.469 10.678-12.227 45.649 23.56 25.877-15.964 27.627-34.163-7.484-12.043 12.042 11.314 11.314 5.854-5.854 37.04 8.115 27.668-47.883-25.548-28.06 7.702-28.758L496 283.643v-55.287z"></path><path d="M384 364.809A168.015 168.015 0 0 0 424 256c0-92.636-75.364-168-168-168S88 163.364 88 256a167.808 167.808 0 0 0 40 108.806V480H16v16h480v-16H384zM192 480h-16v-24h16zm32 0h-16v-40h-48v40h-16V264h80zm0-232h-24v-19.313l-18.345-18.346a24.009 24.009 0 1 0-11.314 11.314L184 235.313V248h-56v89.982A151.861 151.861 0 0 1 104 256c0-83.813 68.187-152 152-152s152 68.187 152 152a152.087 152.087 0 0 1-24 81.977V216h-64v-12.687l5.659-5.658a24.009 24.009 0 1 0-11.314-11.314L304 196.687V216h-16v-49.376a24 24 0 1 0-16 0V216h-16v-27.313l-24.392-24.393a24.026 24.026 0 1 0-8.383 14.244L240 195.313V216h-16zm-56-48a8 8 0 1 1-8-8 8.01 8.01 0 0 1 8 8zm160-24a8 8 0 1 1 8 8 8.01 8.01 0 0 1-8-8zm-48-24a8 8 0 1 1 8-8 8.01 8.01 0 0 1-8 8zm-64 8a8 8 0 1 1-8-8 8.01 8.01 0 0 1 8 8zm104 320h-32v-24h32zm48 0h-32v-40h-64v40h-32V232h128z"></path><path d="M256 248h16v16h-16zM296 248h16v16h-16zM336 248h16v16h-16zM256 280h16v16h-16zM296 280h16v16h-16zM336 280h16v16h-16zM256 312h16v16h-16zM296 312h16v16h-16zM336 312h16v16h-16zM256 344h16v16h-16zM296 344h16v16h-16zM336 344h16v16h-16zM256 376h16v16h-16zM296 376h16v16h-16zM336 376h16v16h-16zM256 408h96v16h-96zM160 280h16v16h-16zM160 320h16v16h-16zM192 320h16v16h-16zM160 360h16v16h-16zM192 360h16v16h-16zM160 400h16v16h-16zM192 400h16v16h-16zM192 280h16v16h-16z"></path></g></g></svg>