<svg xmlns="http://www.w3.org/2000/svg" xmlns:xlink="http://www.w3.org/1999/xlink" x="0" y="0" viewBox="0 0 64 64" style="enable-background:new 0 0 512 512" xml:space="preserve" class=""><g><path d="m61.243 57.03-3.453-.863-3.834-12.461A1 1 0 0 0 53 43H42V29.174l3.461 4.94A6.775 6.775 0 0 0 51 37a6.461 6.461 0 0 0 1.167-.1 6.759 6.759 0 0 0 5.169-4.286l4.6-12.258A1 1 0 0 0 61 19h-6a1 1 0 0 0-.949.684L51.7 26.74l-3.086-4.624A6.975 6.975 0 0 0 42.79 19H39V8.5a6.493 6.493 0 0 0-10.192-5.343A4 4 0 1 0 26 10v9h-2a5.006 5.006 0 0 0-5-5h-4A13.015 13.015 0 0 0 2 27v5a10.992 10.992 0 0 0 20 6.308v5.51l-2.572 6.86-11.043-4.6a1 1 0 0 0-1.233.393l-5 8a1 1 0 0 0 1.22 1.459l4.64-1.857 15.637 5.865a1 1 0 0 0 1.1-.273l7.7-8.665h13.907l4.734 10.414a1 1 0 0 0 1.226.534l9-3a1 1 0 0 0-.073-1.918ZM55.721 21h3.836l-.75 2h-3.753Zm-1.334 4h3.669l-.956 2.561-3.147-1.261ZM53 29.163l.319-.958 3.073 1.229-.929 2.475a4.71 4.71 0 0 1-1.742 2.238 4.819 4.819 0 0 1-.721.405Zm-2 .14v5.688a4.787 4.787 0 0 1-3.9-2.022l-.626-.9 4.1-3.414Zm-3.215-4.822 1.67 2.5-4.133 3.449-1.722-2.461ZM42 21h.79a4.976 4.976 0 0 1 3.856 1.826l-4.2 3.5-.446-.641ZM28 8.5a4.488 4.488 0 0 1 8.949-.5H33a3 3 0 0 0 0 6h4v5h-9Zm9 1.5v2h-4a1 1 0 0 1 0-2ZM24 6a1.989 1.989 0 0 1 3.355-1.457A6.46 6.46 0 0 0 26.025 8H26a2 2 0 0 1-2-2Zm0 15h16v2H24Zm0 18v-2h16v2Zm16 2v2H24v-2Zm-15.219-6-.5-2H40v2ZM28 31v-2h12v2Zm0-4v-1a1 1 0 0 0-1-1h13v2Zm-5 0h3v4h-4v-4Zm-4-11a3 3 0 0 1 3 3v6h-3.236l-2.455-9Zm1 11v4h-4v-4h4Zm-3.309-2H16.5l-2.393-3.19a4.376 4.376 0 0 1 .962-.193l.684-.054ZM13 41a9.01 9.01 0 0 1-9-9v-5a11.006 11.006 0 0 1 10.247-10.962l.971 3.561-.3.024A6.419 6.419 0 0 0 9 26v3a4 4 0 0 0 3.82 3.982c.061 0 .118.018.18.018h3.719l-.689 2.758A1 1 0 0 0 17 37h3.46A8.98 8.98 0 0 1 13 41Zm0-16a3.951 3.951 0 0 0-1.955.532 4.381 4.381 0 0 1 1.332-2.7L14 25Zm1 2v4h-1a2 2 0 0 1 0-4Zm4.281 8 .5-2h3.438l.5 2Zm34.257 24.767L47.91 49.586A1 1 0 0 0 47 49H32a1 1 0 0 0-.748.336l-7.544 8.486-15.357-5.759a1.018 1.018 0 0 0-.723.008l-2.158.864 2.93-4.686 11.217 4.674a1 1 0 0 0 1.322-.571L23.693 45h28.568l3.783 12.294a1 1 0 0 0 .713.676l.669.168Z"></path></g></svg>