<svg xmlns="http://www.w3.org/2000/svg" xmlns:xlink="http://www.w3.org/1999/xlink" x="0" y="0" viewBox="0 0 50 50" style="enable-background:new 0 0 512 512" xml:space="preserve" class=""><g><path d="M42.48 27.89c.45-.32.74-.85.74-1.44v-.99c0-.52-.22-.98-.57-1.3l1.36-2.67c.39-.76.28-1.63-.27-2.28-.57-.66-1.48-.9-2.31-.62-.13.04-.24.11-.32.21l-.51.57-.15-.15c-.16-.17-.33-.33-.47-.43-.86-.61-1.87-.93-2.93-.93-1.02 0-1.88.72-2.63 1.35-.16.13-.31.26-.46.37l-.42.33c-.12-.06-.31-.2-.44-.28-.14-.1-.27-.2-.39-.27-.97-.58-2.32-.25-2.92.7-.38.6-.41 1.31-.1 1.96l1.15 2.4c-.21.29-.34.65-.34 1.04v.99c0 .49.2.93.52 1.25-.96.76-1.87 1.69-2.7 2.8-.3.4-.57.81-.83 1.23-1.86-.91-3.99-1.41-6.23-1.41h-.13v-1.75c3.23-1.16 5.55-4.25 5.55-7.87v-6.34h.5c.42 0 .75-.34.75-.75v-3.03c0-.41-.33-.75-.75-.75h-.95c0-.01.01-.02.01-.03 0-4.85-3.95-8.8-8.81-8.8-4.85 0-8.8 3.95-8.8 8.8 0 .01.01.02.01.03h-.95c-.42 0-.75.34-.75.75v3.03c0 .41.33.75.75.75h.51v6.34c0 .2.02.39.03.59v.04a8.386 8.386 0 0 0 5.52 7.24v1.74h-.09c-7.17 0-12.37 4.73-12.38 11.23v2.06c0 2.92 2.38 5.3 5.3 5.3h21.75c.69 0 1.37-.14 1.99-.4 1.31.43 2.85.5 4.48.5h.92l.92-.01c5.63 0 12.09-.91 12.09-8.01 0-4.63-2.7-10.11-6.25-13.09zM8.44 11.33h17.99v1.53H8.44zm15.97 5.97c0 1.2-1.24 2.14-2.82 2.14s-2.82-.94-2.82-2.14 1.24-2.14 2.82-2.14 2.82.94 2.82 2.14zm-8.3 0c0 1.2-1.24 2.14-2.82 2.14s-2.82-.94-2.82-2.14 1.24-2.14 2.82-2.14 2.82.94 2.82 2.14zm-6.27 4.75h4.1c.02 0 .12.01.28.01.6 0 2.03-.19 3.18-1.68 1.15 1.5 2.59 1.68 3.14 1.68.13 0 .21-.01.21-.01h4.3c-.63 3.14-3.41 5.52-6.74 5.52h-1.74c-3.32 0-6.1-2.38-6.73-5.52zm9.79 9.19c0 1.1-.98 1.99-2.19 1.99-.6 0-1.15-.21-1.57-.59-.4-.38-.62-.88-.62-1.4v-2.29c.43.07.87.12 1.32.12h1.74c.45 0 .89-.05 1.32-.12zM32 25.46c0-.15.12-.27.27-.27h9.18c.15 0 .27.12.27.27v.99c0 .15-.12.27-.27.27h-9.18c-.15 0-.27-.12-.27-.27zm4.64 22.03-.93.01c-2.37.01-4.6.03-5.96-.92-1.57-1.09-2.56-2.83-2.92-5.17-.53-3.37.45-7.02 2.69-10.01 1.01-1.34 2.16-2.44 3.34-3.18h7.55c3.78 2.38 6.82 8.05 6.82 12.76 0 4.63-3.07 6.51-10.59 6.51z"></path><path d="M22.91 17.3c0 .25-.53.64-1.32.64s-1.32-.39-1.32-.64c0-.26.53-.64 1.32-.64s1.32.38 1.32.64zM14.61 17.3c0 .25-.52.64-1.32.64-.79 0-1.32-.39-1.32-.64 0-.26.53-.64 1.32-.64.8 0 1.32.38 1.32.64zM36.86 29.62c-4.54 0-8.23 3.7-8.23 8.24s3.69 8.24 8.23 8.24 8.24-3.7 8.24-8.24-3.7-8.24-8.24-8.24zm0 7.49c1.56 0 2.83 1.27 2.83 2.83 0 1.29-.89 2.38-2.08 2.71v.27c0 .42-.33.75-.75.75-.41 0-.75-.33-.75-.75v-.27c-1.19-.33-2.08-1.42-2.08-2.71 0-.42.34-.75.75-.75.42 0 .75.33.75.75 0 .73.6 1.32 1.33 1.32s1.33-.59 1.33-1.32c0-.74-.6-1.33-1.33-1.33-1.56 0-2.83-1.27-2.83-2.83 0-1.29.89-2.38 2.08-2.71v-.27c0-.42.34-.75.75-.75.42 0 .75.33.75.75v.27c1.19.33 2.08 1.42 2.08 2.71 0 .42-.34.75-.75.75-.42 0-.75-.33-.75-.75 0-.73-.6-1.32-1.33-1.32s-1.33.59-1.33 1.32c-.01.73.6 1.33 1.33 1.33z"></path></g></svg>