<svg xmlns="http://www.w3.org/2000/svg" xmlns:xlink="http://www.w3.org/1999/xlink" x="0" y="0" viewBox="0 0 50 50" style="enable-background:new 0 0 512 512" xml:space="preserve" class=""><g><path d="M34.79 49c-2.26 0-4.36-.11-5.91-1.19-1.92-1.33-3.12-3.41-3.55-6.17-.59-3.77.5-7.83 2.98-11.14 1.19-1.59 2.52-2.82 3.95-3.67.12-.07.25-.11.38-.11h7.97c.14 0 .27.04.38.11 4.26 2.55 7.73 8.9 7.73 14.15 0 7.1-6.46 8.01-12.1 8.01h-.91c-.31.01-.61.01-.92.01zm-1.94-20.78c-1.18.74-2.33 1.84-3.34 3.18-2.24 2.99-3.22 6.64-2.69 10.01.37 2.34 1.35 4.08 2.92 5.17 1.37.95 3.6.93 5.96.92h.92c7.53 0 10.6-1.89 10.6-6.51 0-4.72-3.04-10.39-6.82-12.76h-7.55zM31.74 25.33c-.28 0-.55-.16-.68-.43l-1.38-2.89c-.31-.65-.28-1.36.1-1.97.6-.95 1.95-1.28 2.92-.69.12.07.26.17.4.26.12.09.32.22.44.28l.42-.32c.15-.12.3-.24.46-.38.76-.63 1.61-1.35 2.63-1.35 1.06 0 2.08.32 2.94.94.14.1.3.26.47.42l.15.15.51-.57c.09-.1.2-.17.32-.21.83-.28 1.74-.03 2.31.63.56.65.66 1.52.27 2.27l-1.69 3.31c-.19.37-.64.51-1.01.33a.759.759 0 0 1-.33-1.01l1.69-3.31c.15-.3 0-.53-.08-.61a.623.623 0 0 0-.53-.22l-.7.79c-.09.1-.2.17-.32.21-.74.25-1.3-.33-1.67-.71-.09-.1-.18-.19-.26-.25-.61-.43-1.32-.66-2.07-.66-.47 0-1.14.55-1.67 1l-.5.41-.52.41c-.79.6-1.65 0-2.11-.32-.1-.07-.21-.14-.3-.2a.646.646 0 0 0-.88.2c-.1.16-.11.33-.02.52l1.38 2.89c.18.37.02.82-.35 1-.12.06-.23.08-.34.08z"></path><path d="M41.45 28.22h-9.19c-.98 0-1.77-.79-1.77-1.77v-.99c0-.98.79-1.77 1.77-1.77h9.19c.98 0 1.77.79 1.77 1.77v.99c0 .98-.8 1.77-1.77 1.77zm-9.19-3.03c-.15 0-.27.12-.27.27v.99c0 .15.12.27.27.27h9.19c.15 0 .27-.12.27-.27v-.99c0-.15-.12-.27-.27-.27zM22.48 48.9H6.58a5.31 5.31 0 0 1-5.3-5.3v-2.05c0-6.51 5.21-11.23 12.38-11.23h.84c.41 0 .75.34.75.75s-.34.75-.75.75h-.84c-6.4 0-10.88 4-10.88 9.73v2.05c0 2.1 1.71 3.8 3.8 3.8h15.9c.41 0 .75.34.75.75s-.34.75-.75.75z"></path><path d="M23.99 48.89H12.55c-.41 0-.75-.34-.75-.75s.34-.75.75-.75H24c.41 0 .75.34.75.75s-.34.75-.76.75z"></path><path d="M28.33 48.9H12.42c-.41 0-.75-.34-.75-.75s.34-.75.75-.75h15.91c.58 0 1.13-.12 1.64-.37.37-.18.82-.03 1 .34s.03.82-.34 1c-.71.35-1.5.53-2.3.53zM27.78 33.45c-.12 0-.25-.03-.37-.1-1.78-1.01-3.9-1.54-6.16-1.54h-.85c-.41 0-.75-.34-.75-.75s.34-.75.75-.75h.85c2.51 0 4.89.6 6.9 1.73.36.2.49.66.28 1.02-.14.25-.39.39-.65.39z"></path><path d="M22.36 48.89H10.91c-.41 0-.75-.34-.75-.75s.34-.75.75-.75h11.45c.41 0 .75.34.75.75s-.34.75-.75.75zM17.43 34.73c-.97 0-1.89-.36-2.59-1a3.42 3.42 0 0 1-1.1-2.5V28.2c0-.41.34-.75.75-.75s.75.34.75.75v3.03c0 .52.22 1.02.62 1.4.41.38.97.6 1.56.6 1.21 0 2.2-.9 2.2-2V28.2c0-.41.34-.75.75-.75s.75.34.75.75v3.03c0 1.93-1.65 3.5-3.69 3.5z"></path><path d="M18.3 29.07h-1.74c-4.62 0-8.37-3.76-8.37-8.37v-7.09c0-.41.34-.75.75-.75s.75.34.75.75v7.09c0 3.79 3.08 6.87 6.87 6.87h1.74c3.79 0 6.87-3.08 6.87-6.87v-7.09c0-.41.34-.75.75-.75s.75.34.75.75v7.09c.01 4.61-3.75 8.37-8.37 8.37z"></path><path d="M27.17 14.36H7.68c-.41 0-.75-.34-.75-.75v-3.03c0-.41.34-.75.75-.75h19.5c.41 0 .75.34.75.75v3.03c-.01.41-.34.75-.76.75zm-18.74-1.5h18v-1.53h-18z"></path><path d="M25.48 10.55c-.41 0-.75-.34-.75-.75 0-4.03-3.28-7.3-7.3-7.3-4.03 0-7.3 3.28-7.3 7.3a.755.755 0 0 1-1.51 0c0-4.85 3.95-8.8 8.8-8.8s8.8 3.95 8.8 8.8c.01.42-.33.75-.74.75zM21.58 19.44c-1.58 0-2.82-.94-2.82-2.14s1.24-2.14 2.82-2.14 2.82.94 2.82 2.14-1.23 2.14-2.82 2.14zm0-2.78c-.79 0-1.32.39-1.32.64s.53.64 1.32.64 1.32-.39 1.32-.64-.52-.64-1.32-.64zM13.29 19.44c-1.58 0-2.82-.94-2.82-2.14s1.24-2.14 2.82-2.14 2.82.94 2.82 2.14-1.24 2.14-2.82 2.14zm0-2.78c-.79 0-1.32.39-1.32.64s.53.64 1.32.64 1.32-.39 1.32-.64-.53-.64-1.32-.64zM26.08 42.29H2.03c-.41 0-.75-.34-.75-.75s.34-.75.75-.75h24.06c.41 0 .75.34.75.75s-.34.75-.76.75z"></path><path d="M14.21 22.06c-.16 0-.26-.01-.28-.01l-4.97.01c-.41 0-.75-.34-.75-.75s.34-.75.75-.75h5.07c.16.01 1.75.15 2.71-1.98a.75.75 0 0 1 1.37.61c-1.17 2.62-3.16 2.87-3.9 2.87z"></path><path d="M20.53 22.06c-.66 0-2.67-.24-3.86-2.87-.17-.38 0-.82.38-.99s.82 0 .99.38c.96 2.13 2.55 1.99 2.62 1.98l5.15-.01c.41 0 .75.34.75.75s-.34.75-.75.75h-5.07c.01 0-.07.01-.21.01zM36.85 46.1c-4.54 0-8.24-3.69-8.24-8.24 0-4.54 3.69-8.24 8.24-8.24s8.24 3.69 8.24 8.24c0 4.54-3.7 8.24-8.24 8.24zm0-14.98c-3.71 0-6.74 3.02-6.74 6.74 0 3.71 3.02 6.74 6.74 6.74s6.74-3.02 6.74-6.74c0-3.71-3.02-6.74-6.74-6.74z"></path><path d="M36.85 38.61c-1.56 0-2.83-1.27-2.83-2.83s1.27-2.83 2.83-2.83 2.83 1.27 2.83 2.83c0 .41-.34.75-.75.75s-.75-.34-.75-.75c0-.73-.6-1.33-1.33-1.33s-1.33.6-1.33 1.33.6 1.33 1.33 1.33a.749.749 0 1 1 0 1.5z"></path><path d="M36.85 42.76c-1.56 0-2.83-1.27-2.83-2.83 0-.41.34-.75.75-.75s.75.34.75.75c0 .73.6 1.33 1.33 1.33s1.33-.6 1.33-1.33-.6-1.33-1.33-1.33c-.41 0-.75-.34-.75-.75s.34-.75.75-.75c1.56 0 2.83 1.27 2.83 2.83s-1.27 2.83-2.83 2.83zM36.85 34.46c-.41 0-.75-.34-.75-.75v-.91c0-.41.34-.75.75-.75s.75.34.75.75v.91c0 .41-.33.75-.75.75z"></path><path d="M36.85 43.67c-.41 0-.75-.34-.75-.75v-.91c0-.41.34-.75.75-.75s.75.34.75.75v.91c0 .42-.33.75-.75.75z"></path></g></svg>