<svg xmlns="http://www.w3.org/2000/svg" xmlns:xlink="http://www.w3.org/1999/xlink" x="0" y="0" viewBox="0 0 512 512" style="enable-background:new 0 0 512 512" xml:space="preserve" class=""><g><path fill-rule="evenodd" d="m205.646 448.476-52.428-30.003a34.93 34.93 0 0 1-.431-.251c10.987-3.604 17.536-15.263 15.009-27.111a7.943 7.943 0 0 0-.296-1.039c-5.062-14.078-7.802-29.423-10.003-41.752-.777-4.354-1.512-8.467-2.251-11.935-3.204-15.036-14.586-23.367-25.298-29.533L94.007 286.16l2.046-3.475c2.122-3.603 2.711-7.824 1.66-11.886s-3.614-7.468-7.217-9.589l-14.501-8.539c-7.452-4.387-17.086-1.896-21.475 5.557l-44.358 75.328c-4.388 7.453-1.895 17.087 5.557 21.475l14.502 8.539a15.555 15.555 0 0 0 7.916 2.169c1.322 0 2.654-.169 3.969-.509a15.576 15.576 0 0 0 9.589-7.217l2.879-4.889 4.752 2.744 17.552 65.506c3.231 12.062 10.639 21.518 21.424 27.346l97.876 52.87c3.056 1.651 6.457 2.427 9.903 2.427 8.555 0 17.383-4.782 21.86-12.831 2.966-5.33 10.118-24.159-22.295-42.71zM38.069 349.622l-13.958-8.22 44.038-74.784 13.958 8.219zM213.96 483.407c-2.077 3.733-7.583 5.509-10.175 4.104l-97.876-52.87c-7.011-3.788-11.451-9.482-13.574-17.409l-18.41-68.707a7.993 7.993 0 0 0-3.728-4.857l-7.503-4.332 23.195-39.389 36.077 20.771c9.293 5.35 15.849 10.628 17.633 19.002.684 3.207 1.362 7.009 2.148 11.412 2.277 12.755 5.104 28.587 10.484 43.756.619 3.83-1.371 7.32-4.761 8.229-1.499.401-5.449 1.448-8.227-4.861-2.403-7.263-4.221-14.51-6.141-22.177-.93-3.713-1.892-7.552-2.944-11.478a8 8 0 1 0-15.454 4.143c1.018 3.798 1.963 7.572 2.877 11.223 2.029 8.101 3.945 15.751 6.603 23.718.011.034.082.236.108.305l2.334 6.157c3.799 9.94 9.897 17.206 18.644 22.213l52.428 30.003c12.888 7.375 19.271 15.635 16.262 21.044zM73.487 283.122a5.228 5.228 0 0 1-7.345-.861 5.228 5.228 0 1 1 8.205-6.484 5.229 5.229 0 0 1-.86 7.345zm268.529 77.034c15.273-25.771 14.965-56.474-.844-84.233-9.183-16.123-22.977-34.229-43.011-56.407 5.07-3.87 8.361-9.956 8.361-16.812 0-8.983-5.635-16.656-13.549-19.722l9.332-9.333c4.055-4.055 6.289-9.461 6.289-15.222 0-5.76-2.233-11.166-6.289-15.222-6.764-6.764-17.328-8.187-25.625-3.621-2.64-9.097-11.117-15.56-20.682-15.56-9.563.002-18.041 6.465-20.679 15.56-8.297-4.565-18.862-3.142-25.626 3.622-4.055 4.055-6.289 9.461-6.289 15.222 0 5.76 2.233 11.166 6.289 15.221l9.333 9.332c-7.913 3.066-13.548 10.739-13.548 19.721 0 6.856 3.291 12.942 8.361 16.812-20.034 22.179-33.828 40.285-43.011 56.407-15.81 27.76-16.118 58.461-.845 84.233 16.999 28.685 49.928 46.096 86.017 45.576.566.009 1.129.014 1.693.014 35.403.001 67.591-17.353 84.323-45.588zM226.64 207.866c-2.798 0-5.162-2.364-5.162-5.163 0-2.798 2.364-5.161 5.162-5.161h58.72c2.798 0 5.163 2.364 5.163 5.162s-2.364 5.162-5.163 5.162zm-5.632-53.345c1.823-1.824 4.726-2.136 6.903-.736 4.182 2.684 9.211 3.133 13.798 1.231 4.589-1.899 7.83-5.773 8.89-10.629.552-2.526 2.823-4.361 5.401-4.361s4.85 1.834 5.402 4.362c1.061 4.854 4.3 8.728 8.888 10.627 4.589 1.901 9.62 1.452 13.8-1.231 2.176-1.396 5.08-1.087 6.902.736a5.485 5.485 0 0 1 1.603 3.908 5.479 5.479 0 0 1-1.602 3.907l-19.207 19.207h-31.571l-19.207-19.207a5.478 5.478 0 0 1-1.602-3.906 5.475 5.475 0 0 1 1.602-3.908zm35.127 235.212a6.076 6.076 0 0 0-.27 0c-30.371.508-58.021-13.946-72.118-37.733-12.441-20.993-12.092-45.199.984-68.158 9.448-16.588 24.377-35.712 46.813-59.975h48.912c22.436 24.262 37.365 43.386 46.813 59.975 13.075 22.959 13.425 47.165.983 68.158-14.096 23.786-41.732 38.257-72.117 37.733zm30.277-67.225c.787 6.475-.965 12.402-5.064 17.143-4.045 4.678-10.356 7.996-17.599 9.402v2.814a8 8 0 0 1-16 0v-2.949c-11.298-2.528-19.934-10.295-22.609-21.025a8 8 0 0 1 15.525-3.871c1.781 7.143 9.052 9.709 15.06 9.779.059.003.116.001.174.001.201.006.396 0 .591-.006 5.355-.128 10.482-1.981 12.757-4.611 1.128-1.305 1.523-2.769 1.283-4.748-.273-2.251-.913-7.521-16.011-9.999-21.718-3.566-26.796-15.021-27.231-24.002-.59-12.154 7.6-22.353 20.462-25.613v-3.09a8 8 0 0 1 16 0v3.018c8.326 2.018 16.188 7.422 20.343 17.318a8 8 0 0 1-4.279 10.473 7.998 7.998 0 0 1-10.473-4.279c-2.514-5.986-7.937-8.435-13.215-8.471-.194.01-.391.012-.586.006a17.66 17.66 0 0 0-3.418.429c-1.538.35-9.192 2.443-8.852 9.435.089 1.852.328 6.77 13.842 8.988 17.876 2.933 27.734 10.961 29.3 23.858zm215.425 11.047-44.357-75.327c-4.389-7.453-14.022-9.944-21.475-5.557l-14.5 8.539a15.573 15.573 0 0 0-7.217 9.589 15.58 15.58 0 0 0 1.66 11.886l2.046 3.475-35.941 20.691c-10.712 6.168-22.095 14.499-25.299 29.533-.739 3.469-1.474 7.581-2.251 11.936-2.201 12.329-4.941 27.674-10.003 41.752-.122.34-.221.687-.296 1.039-2.526 11.85 4.022 23.509 15.009 27.111a34.93 34.93 0 0 1-.431.251l-52.428 30.003c-32.413 18.551-25.261 37.38-22.296 42.709 4.477 8.05 13.305 12.831 21.86 12.831 3.445 0 6.848-.775 9.902-2.426l97.877-52.872c10.785-5.827 18.193-15.282 21.424-27.345l17.552-65.506 4.752-2.744 2.878 4.888a15.576 15.576 0 0 0 9.589 7.218c1.315.34 2.647.509 3.969.509 2.761 0 5.48-.734 7.917-2.169l14.5-8.539c7.454-4.387 9.947-14.021 5.559-21.475zm-60.034 10.113a8.006 8.006 0 0 0-3.728 4.857l-18.41 68.707c-2.123 7.927-6.563 13.621-13.574 17.408l-97.877 52.872c-2.596 1.399-8.099-.373-10.175-4.105-3.008-5.409 3.375-13.67 16.261-21.045l52.429-30.003c8.747-5.007 14.845-12.272 18.651-22.232l2.327-6.138c.026-.069.097-.271.108-.305 2.657-7.967 4.574-15.617 6.603-23.718.914-3.65 1.86-7.425 2.877-11.223a8 8 0 0 0-5.656-9.799c-4.264-1.141-8.654 1.39-9.798 5.656-1.052 3.926-2.014 7.765-2.944 11.478-1.92 7.666-3.739 14.914-6.141 22.177-2.778 6.307-6.726 5.263-8.228 4.861-3.389-.908-5.379-4.398-4.76-8.228 5.38-15.17 8.207-31.003 10.484-43.758.786-4.402 1.465-8.204 2.148-11.412 1.784-8.372 8.339-13.651 17.633-19.002l36.077-20.77 23.195 39.39zm32.128 5.955-44.038-74.786 13.958-8.22 44.038 74.785zm-28.934-74.706a5.229 5.229 0 1 1-6.485 8.205 5.229 5.229 0 0 1 6.485-8.205zm-237.11-147.139 52.197-30.402c.144-.084.289-.166.433-.247-2.373 11.316 4.45 22.816 15.975 26.553.343.111.693.199 1.048.264 14.722 2.655 29.379 7.954 41.157 12.212 4.161 1.504 8.091 2.925 11.464 4.019a35.448 35.448 0 0 0 11.018 1.758c10.147 0 19.284-4.312 27.208-8.9l35.89-20.779 1.986 3.51a15.58 15.58 0 0 0 9.464 7.381c1.397.387 2.816.578 4.227.578 2.669 0 5.305-.688 7.685-2.035l14.646-8.288c7.526-4.26 10.185-13.849 5.925-21.376l-43.057-76.078a15.58 15.58 0 0 0-9.463-7.381 15.57 15.57 0 0 0-11.913 1.456l-14.645 8.288c-3.639 2.059-6.26 5.42-7.381 9.464a15.572 15.572 0 0 0 1.456 11.912L366 44.622l-4.752 2.743-65.506-17.553c-12.062-3.233-23.954-1.546-34.395 4.881l-94.725 58.328c-10.299 6.342-13.509 21.627-6.871 32.712 3.134 5.231 15.866 20.837 48.136 2.045zM391.382 24.099l42.748 75.53-14.098 7.979-42.746-75.53zm-216.37 82.548 94.725-58.328c6.788-4.178 13.938-5.176 21.864-3.051l68.707 18.41a7.994 7.994 0 0 0 6.07-.8l7.503-4.332 22.515 39.782-36.026 20.858c-9.281 5.372-17.131 8.413-25.273 5.769-3.12-1.012-6.753-2.325-10.96-3.846-12.184-4.404-27.307-9.872-43.133-12.797-3.626-1.379-5.655-4.849-4.747-8.237.401-1.497 1.468-5.434 8.3-4.697 7.5 1.551 14.694 3.599 22.301 5.772 3.68 1.051 7.486 2.138 11.411 3.189.694.186 1.39.274 2.075.274a8.001 8.001 0 0 0 2.066-15.73c-3.798-1.018-7.539-2.086-11.157-3.119-8.03-2.294-15.614-4.46-23.843-6.142l-.318-.059-6.5-1.057c-10.506-1.682-19.849-.032-28.559 5.04l-52.198 30.402c-12.83 7.472-23.175 8.872-26.356 3.561-2.196-3.662-.979-9.316 1.533-10.862zm242.155-10.646a5.229 5.229 0 1 1 10.348-1.513 5.229 5.229 0 0 1-10.348 1.513z" clip-rule="evenodd" class=""></path></g></svg>