<svg xmlns="http://www.w3.org/2000/svg" xmlns:xlink="http://www.w3.org/1999/xlink" x="0" y="0" viewBox="0 0 64 64" style="enable-background:new 0 0 512 512" xml:space="preserve" class=""><g><g fill="none" stroke="#000" stroke-linecap="round" stroke-linejoin="round" stroke-miterlimit="10"><path d="M37.93 0H4.13c-1.1 0-1.97.89-1.97 1.96v59.56c0 1.09.88 1.96 1.97 1.96h39.86M49.86 37.01V11.89" fill="" opacity="1"></path><path d="M37.93 0v10.94c0 .53.43.96.96.96h10.97zM7.9 23.56h7.43v7.4H7.9zM7.9 37.02h7.43v7.4H7.9zM7.9 50.59h7.43v7.4H7.9zM18.36 25.02h25.2M18.36 29.35h17.55M18.36 39.22h17.55M18.36 42.89h11.85M18.36 52.61h12.6M18.36 56.57h12.6M12.51 10.66v-.8c0-.84-.68-1.52-1.53-1.52H9.09c-.84 0-1.53.68-1.53 1.52v6.31c0 .75.61 1.36 1.37 1.36h2.27c.72 0 1.31-.59 1.31-1.31v-2.69c0-.33-.27-.6-.6-.6h-1.88M18.73 12.95c-1.52-.18-2.51-1.04-2.51-2.33s1.12-2.33 2.51-2.33 2.51 1.04 2.51 2.33M18.7 12.95c1.52.21 2.51.9 2.51 2.33 0 1.29-1.12 2.33-2.51 2.33s-2.51-1.04-2.51-2.33M23.61 8.3h6.64M26.93 8.3v9.31M40.79 39.36l-1.46.39c-.79.21-1.4.84-1.58 1.64l-.41 1.83c-.09.41-.3.79-.61 1.09l-1.28 1.24c-.56.55-.79 1.35-.6 2.1l.51 2.05c.09.36.09.73-.01 1.09l-.5 1.9c-.2.75.02 1.54.55 2.09l1.03 1.06c.26.27.45.6.55.97l.61 2.26c.2.73.75 1.31 1.48 1.53l2.31.71c.34.11.65.29.91.54l1.51 1.5c.66.65 1.65.83 2.49.44l1.05-.49c.59-.27 1.27-.27 1.86 0l1.05.49a2.2 2.2 0 0 0 2.49-.44l1.65-1.64c.27-.27.61-.46.97-.56l1.93-.53a2.19 2.19 0 0 0 1.59-1.8l.24-1.6c.08-.51.33-.98.72-1.33l1.24-1.09c.66-.58.91-1.5.63-2.33l-.59-1.79c-.16-.49-.14-1.03.05-1.51l.43-1.07c.34-.84.13-1.79-.53-2.42l-1.59-1.5c-.38-.36-.62-.83-.67-1.35l-.16-1.45a2.2 2.2 0 0 0-1.94-1.94l-1.22-.14a2.18 2.18 0 0 1-1.29-.62l-1.44-1.42a2.21 2.21 0 0 0-2.32-.49l-1.15.43c-.44.17-.93.18-1.38.05l-2.22-.64c-.74-.21-1.53-.02-2.1.49l-1.9 1.74c-.24.26-.56.43-.9.52zM44.2 48.66h8.24" fill="" opacity="1"></path><path d="m49.84 58.16-5.64-5.84h2.12c2.09 0 3.78-1.69 3.78-3.77s-1.69-3.77-3.78-3.77H44.2h8.24" fill="" opacity="1"></path></g></g></svg>