<svg xmlns="http://www.w3.org/2000/svg" xmlns:xlink="http://www.w3.org/1999/xlink" x="0" y="0" viewBox="0 0 512 512" style="enable-background:new 0 0 512 512" xml:space="preserve" class=""><g><path d="M331.452 173.159c8.557-39.363 43.598-68.843 85.525-68.843 48.337 0 87.523 39.185 87.523 87.523s-39.185 87.523-87.523 87.523a87.8 87.8 0 0 1-18.812-2.027" style="stroke-width:15;stroke-linecap:round;stroke-linejoin:round;stroke-miterlimit:10;" fill="none"></path><path d="M434.29 134.581c24.59 7.42 42.49 30.25 42.49 57.26 0 33.03-26.77 59.8-59.8 59.8-9.25 0-18-2.09-25.81-5.84M357.17 191.841c0-26.87 17.73-49.61 42.12-57.15" style="stroke-width:15;stroke-linecap:round;stroke-linejoin:round;stroke-miterlimit:10;" fill="none" stroke="#000000"></path><path d="M426.909 169.513s-6.911-4.54-14.156-1.969c-6.949 2.466-9.942 11.202-4.464 17.285 3.164 3.513 7.465 3.813 13.88 6.572 13.314 5.726 8.761 24.513-5.377 24.608-5.517.037-8.939-1.182-12.943-3.484M416.792 216.417v8.994M416.792 157.504v8.995M232.378 159.358a133.92 133.92 0 0 1 31.016-3.619c73.776 0 133.583 59.807 133.583 133.583 0 33.684-12.467 64.456-33.039 87.954M132.348 315.364a134.274 134.274 0 0 1-2.537-26.042c0-32.051 11.288-61.465 30.105-84.485M225.886 323.535l25.543-67.068a2.107 2.107 0 0 1 1.97-1.358h0c.877 0 1.663.543 1.972 1.364l25.309 67.062M234.014 306.493h38.67M307.666 255.109l48.136 68.426M352.414 255.109l-48.204 68.426M170.987 255.111h37.786M189.803 257.296v66.24" style="stroke-width:15;stroke-linecap:round;stroke-linejoin:round;stroke-miterlimit:10;" fill="none" stroke="#000000"></path><path d="m289.28 417.481 28.13-5.47 46.53-34.74v-.01l18.56-13.85a21.66 21.66 0 0 1 13-4.32c6.25 0 12.45 2.69 16.74 7.85 7.99 9.61 6.77 23.85-2.74 31.96l-14.55 12.4M7.5 442.021l62.76-18a54.298 54.298 0 0 1 44.42 6.58l69.58 44.92a52.22 52.22 0 0 0 38.27 7.39l104.41-20.31a39.083 39.083 0 0 0 17.92-8.63l23.44-19.97M71.16 328.241 7.5 340.311" style="stroke-width:15;stroke-linecap:round;stroke-linejoin:round;stroke-miterlimit:10;" fill="none" stroke="#000000"></path><path d="m105.55 321.721 36.86-6.99a61.657 61.657 0 0 1 57.21 18.85l6.3 6.86c8.72 9.52 18.8 17.69 29.92 24.26 12.42 7.35 29.4 17.4 42.58 25.18 11.17 6.59 14.88 20.99 8.23 32.27l-.3.5c-6.28 10.67-19.93 14.38-30.75 8.35l-55.14-30.7a47.263 47.263 0 0 0-27.91-5.71M236.32 83.171c4.02 10.04 6.23 21.01 6.23 32.49 0 48.33-39.19 87.52-87.53 87.52-48.33 0-87.52-39.19-87.52-87.52 0-48.34 39.19-87.53 87.52-87.53 24.23 0 46.16 9.85 62.01 25.76" style="stroke-width:15;stroke-linecap:round;stroke-linejoin:round;stroke-miterlimit:10;" fill="none" stroke="#000000"></path><circle cx="155.023" cy="115.658" r="59.807" style="stroke-width:15;stroke-linecap:round;stroke-linejoin:round;stroke-miterlimit:10;" fill="none" stroke="#000000"></circle><path d="M164.954 93.332s-6.911-4.54-14.156-1.969c-6.949 2.466-9.942 11.202-4.464 17.285 3.164 3.513 7.465 3.813 13.88 6.572 13.314 5.726 8.761 24.513-5.377 24.608-5.517.037-8.939-1.182-12.943-3.484M154.837 140.236v8.995M154.837 81.324v8.994" style="stroke-width:15;stroke-linecap:round;stroke-linejoin:round;stroke-miterlimit:10;" fill="none" stroke="#000000"></path></g></svg>