<svg xmlns="http://www.w3.org/2000/svg" xmlns:xlink="http://www.w3.org/1999/xlink" x="0" y="0" viewBox="0 0 64 64" style="enable-background:new 0 0 512 512" xml:space="preserve" class=""><g><path d="m53.08 12.7.77-3.07c.35-1.39-.41-2.8-1.73-3.21-1.33-.41-2.76.28-3.25 1.58l-1.28 3.4a2 2 0 0 1-1.87 1.3H44c0-.55-.45-1-1-1h-5c-.55 0-1 .45-1 1v10c0 .55.45 1 1 1h5c.55 0 1-.45 1-1h.18l1.27.83c.16.11.35.17.55.17h8.21c1.53 0 2.81-1.15 2.98-2.67l.56-5c.09-.85-.18-1.7-.75-2.33s-1.38-1-2.24-1zM42 21.7h-3v-8h3zm13.76-5.89-.56 5c-.06.51-.48.89-.99.89H46.3l-1.26-.83a.967.967 0 0 0-.55-.17H44v-6h1.72c1.66 0 3.16-1.04 3.75-2.6l1.28-3.4c.1-.27.41-.49.79-.37.29.09.47.47.38.82l-1.08 4.31c-.08.3 0 .62.18.86.19.24.48.38.79.38h2.97c.29 0 .55.12.75.33a1 1 0 0 1 .25.78zM2 63h36c.55 0 1-.45 1-1V49.44c1.19-.69 2-1.97 2-3.44 0-1.86-1.28-3.43-3-3.87V39c0-.55-.45-1-1-1H25V25c0-.55-.45-1-1-1H2c-.55 0-1 .45-1 1v37c0 .55.45 1 1 1zm35-2H17V50c.92 0 1.8-.32 2.5-.88 1.4 1.12 3.6 1.12 5 0 1.4 1.12 3.6 1.12 5 0 1.4 1.12 3.6 1.12 5 0 .7.56 1.58.88 2.5.88zm-1-21v3c0 .55.45 1 1 1 1.1 0 2 .9 2 2s-.9 2-2 2c-.67 0-1.29-.34-1.67-.9-.19-.28-.5-.45-.83-.45s-.65.17-.83.45c-.37.56-1 .9-1.67.9s-1.29-.34-1.67-.9c-.37-.56-1.3-.56-1.67 0s-1 .9-1.67.9-1.29-.34-1.67-.9c-.37-.56-1.3-.56-1.67 0s-1 .9-1.67.9-1.29-.34-1.67-.9c-.37-.56-1.3-.56-1.67 0s-1 .9-1.67.9c-1.1 0-2-.9-2-2s.9-2 2-2c.55 0 1-.45 1-1v-3h18zM3 26h20v12h-6c-.55 0-1 .45-1 1v3.13c-1.72.44-3 2.01-3 3.87 0 1.47.81 2.75 2 3.44V61H3z"></path><path d="M32 52H22c-.55 0-1 .45-1 1v5c0 .55.45 1 1 1h10c.55 0 1-.45 1-1v-5c0-.55-.45-1-1-1zm-1 5h-8v-3h8zM16 35h4c.55 0 1-.45 1-1v-4c0-.55-.45-1-1-1h-4c-.55 0-1 .45-1 1v4c0 .55.45 1 1 1zm1-4h2v2h-2zM10 29H6c-.55 0-1 .45-1 1v4c0 .55.45 1 1 1h4c.55 0 1-.45 1-1v-4c0-.55-.45-1-1-1zm-1 4H7v-2h2zM10 40.5H6c-.55 0-1 .45-1 1v4c0 .55.45 1 1 1h4c.55 0 1-.45 1-1v-4c0-.55-.45-1-1-1zm-1 4H7v-2h2zM10 52H6c-.55 0-1 .45-1 1v4c0 .55.45 1 1 1h4c.55 0 1-.45 1-1v-4c0-.55-.45-1-1-1zm-1 4H7v-2h2zM47 1c-8.82 0-16 7.18-16 16 0 3.14.91 6.16 2.64 8.78l-3.49 5.7c-.22.35-.19.8.06 1.13.19.25.49.4.8.4.09 0 .18-.01.27-.04l7.64-2.17c2.46 1.45 5.25 2.21 8.09 2.21 8.82 0 16-7.18 16-16S55.82 1 47 1zm0 30c-2.61 0-5.18-.74-7.41-2.14-.16-.1-.35-.15-.53-.15-.09 0-.18.01-.27.04l-5.59 1.59 2.49-4.06c.21-.34.19-.78-.04-1.11A13.9 13.9 0 0 1 33.01 17c0-7.72 6.28-14 14-14s14 6.28 14 14-6.28 14-14 14z"></path></g></svg>