<svg xmlns="http://www.w3.org/2000/svg" xmlns:xlink="http://www.w3.org/1999/xlink" x="0" y="0" viewBox="0 0 512 512" style="enable-background:new 0 0 512 512" xml:space="preserve" class=""><g><path d="M487.942 350.859c15.278-15.279 21.726-36 18.154-58.344l-16.128-101.276c-2.115-13.369-13.991-19.305-24.646-18.262-10.503 1.031-20.864 9.06-20.346 22.408l2.518 65.587a29.764 29.764 0 0 0-5.609-2.852c-10.815-4.139-22.589-1.653-30.729 6.487l-49.316 49.344-9.462 2.53c-11.131 2.962-20.115 8.141-28.272 16.298l-22.796 22.796c-12.022 12.052-18.229 27.017-18.451 44.482l-.619 53.024c-7.293 2.215-12.618 8.997-12.618 17.005v20.126c0 9.816 7.973 17.802 17.773 17.802h111.146c9.816 0 17.802-7.986 17.802-17.802v-20.126c0-8.208-5.61-15.115-13.197-17.148l-.282-4.105c-.559-7.997 2.039-14.933 7.723-20.616l77.357-77.357zm-83.619 139.354a5.79 5.79 0 0 1-5.783 5.783H287.394c-3.173 0-5.754-2.594-5.754-5.783v-20.126c0-3.119 2.635-5.754 5.754-5.754H398.541c3.189 0 5.783 2.582 5.783 5.754v20.126zm-2.237-70.495c-8.137 8.138-12.015 18.496-11.213 29.947l.182 2.649h-96.787l.609-52.11c.183-14.422 5.07-26.244 14.937-36.135l22.791-22.791c6.688-6.689 13.74-10.754 22.871-13.184l11.027-2.948a6.006 6.006 0 0 0 2.699-1.558l50.456-50.484c5.663-5.665 12.978-5.655 17.934-3.76 6.388 2.444 10.422 7.957 10.793 14.748l.001.013v.012a16.802 16.802 0 0 1-4.884 12.859l-47.282 47.282a6.01 6.01 0 1 0 8.5 8.499l47.282-47.282a28.833 28.833 0 0 0 8.388-21.897v-.045l-3.402-88.613c-.258-6.654 4.962-9.536 9.51-9.983 4.687-.453 10.53 1.407 11.603 8.185l16.129 101.285c2.99 18.708-2.122 35.29-14.785 47.952l-77.357 77.357zm-172.299 33.369-.646-53.034c-.221-17.491-6.43-32.457-18.456-44.482l-22.791-22.791c-8.153-8.153-17.126-13.332-28.238-16.296l-9.469-2.531-49.345-49.346c-8.14-8.139-19.915-10.625-30.728-6.486a29.764 29.764 0 0 0-5.609 2.852l2.518-65.584c.518-13.341-9.83-21.372-20.318-22.408-10.645-1.055-22.538 4.879-24.673 18.253L5.904 292.512c-3.572 22.347 2.875 43.068 18.155 58.348l77.376 77.348c5.67 5.693 8.262 12.633 7.702 20.632l-.282 4.1c-7.571 2.036-13.168 8.941-13.168 17.146v20.126c0 9.816 7.973 17.802 17.773 17.802h111.146c9.816 0 17.801-7.986 17.801-17.802v-20.126c0-8.001-5.325-14.78-12.621-17zM32.557 342.36c-12.663-12.662-17.775-29.243-14.784-47.955l16.128-101.28c1.083-6.783 6.94-8.645 11.622-8.186 4.54.449 9.749 3.333 9.491 9.984l-3.402 88.611v.044c-.403 8.149 2.643 16.117 8.376 21.884l.021.022 47.302 47.274c1.173 1.173 2.71 1.759 4.248 1.759s3.077-.587 4.25-1.761a6.01 6.01 0 0 0-.002-8.499l-47.303-47.276c-3.366-3.39-5.147-8.088-4.888-12.89.371-6.791 4.405-12.304 10.793-14.748 4.956-1.896 12.27-1.905 17.934 3.76l50.485 50.485a6.009 6.009 0 0 0 2.698 1.556l11.029 2.948c9.109 2.431 16.153 6.497 22.84 13.184l22.791 22.791c9.869 9.868 14.754 21.688 14.937 36.132l.635 52.113h-96.813l.182-2.642c.801-11.445-3.064-21.8-11.186-29.955l-77.385-77.357zM230.39 490.213a5.79 5.79 0 0 1-5.783 5.783H113.46c-3.173 0-5.754-2.594-5.754-5.783v-20.126c0-3.119 2.635-5.754 5.754-5.754H224.607c3.188 0 5.783 2.582 5.783 5.754zm62.041-194.925a6.009 6.009 0 0 0 2.272-6.409l-9.089-34.083 27.368-22.236a6.01 6.01 0 0 0-3.464-10.665l-35.208-1.915-12.69-32.911a6.009 6.009 0 0 0-5.605-3.847h-.002a6.007 6.007 0 0 0-5.605 3.844l-12.717 32.915-35.21 1.915a6.012 6.012 0 0 0-3.464 10.665l27.37 22.238-9.064 34.086a6.01 6.01 0 0 0 9.07 6.591l29.619-19.15 29.619 19.15a6.006 6.006 0 0 0 6.797-.186zm-33.153-31.167a6.008 6.008 0 0 0-6.525 0l-19.812 12.809 6.063-22.801a6.008 6.008 0 0 0-2.018-6.208l-18.302-14.871 23.541-1.28a6.008 6.008 0 0 0 5.279-3.835l8.505-22.015 8.487 22.011a6.007 6.007 0 0 0 5.281 3.838l23.542 1.28-18.303 14.871a6.01 6.01 0 0 0-2.017 6.212l6.077 22.789zm154.163-60.308a6.011 6.011 0 0 0-5.392-4.143l-26.133-1.406-9.401-24.403a6.01 6.01 0 0 0-5.605-3.849h-.002a6.01 6.01 0 0 0-5.606 3.844l-9.428 24.408-26.137 1.407a6.01 6.01 0 0 0-3.468 10.664l20.311 16.511-6.736 25.269a6.01 6.01 0 0 0 9.069 6.595l21.992-14.217 21.965 14.215a6.008 6.008 0 0 0 9.071-6.593l-6.736-25.269 20.311-16.511a6.009 6.009 0 0 0 1.924-6.521zm-32.834 16.159a6.01 6.01 0 0 0-2.016 6.211l3.723 13.963-12.141-7.857a6.007 6.007 0 0 0-6.527-.002l-12.175 7.871 3.726-13.975a6.01 6.01 0 0 0-2.016-6.211l-11.24-9.137 14.462-.778a6.01 6.01 0 0 0 5.283-3.835l5.215-13.502 5.199 13.497a6.012 6.012 0 0 0 5.285 3.841l14.462.778-11.24 9.137zm-188.948-16.159a6.011 6.011 0 0 0-5.392-4.143l-26.133-1.406-9.401-24.403a6.01 6.01 0 0 0-5.605-3.849h-.003a6.01 6.01 0 0 0-5.606 3.844l-9.428 24.409-26.109 1.406a6.009 6.009 0 0 0-3.47 10.662l20.29 16.513-6.714 25.273a6.01 6.01 0 0 0 9.073 6.588l21.963-14.214 21.963 14.214a6.008 6.008 0 0 0 9.071-6.593l-6.736-25.269 20.311-16.511a6.007 6.007 0 0 0 1.924-6.521zm-32.834 16.159a6.01 6.01 0 0 0-2.016 6.211l3.723 13.963-12.141-7.857a6.009 6.009 0 0 0-6.53 0l-12.159 7.869 3.714-13.98a6.012 6.012 0 0 0-2.015-6.204l-11.23-9.139 14.449-.778a6.012 6.012 0 0 0 5.283-3.835l5.215-13.502 5.199 13.497a6.012 6.012 0 0 0 5.285 3.841l14.462.778-11.24 9.137zM97.39 139.029h77.188v29.622a6.009 6.009 0 0 0 6.009 6.009h150.832a6.009 6.009 0 0 0 6.009-6.009v-29.622h77.216a6.009 6.009 0 0 0 6.009-6.009v-24.01c0-.073 0-.146-.004-.219-.599-16.424-12.502-29.346-31.862-35.463 4.779-5.743 7.657-13.117 7.657-21.152 0-18.288-14.877-33.166-33.165-33.166s-33.137 14.878-33.137 33.166c0 8.031 2.873 15.402 7.644 21.143-12.044 3.789-21.249 10.211-26.605 18.599-6.564-3.979-14.224-7.197-22.835-9.52 8.354-8.317 13.535-19.823 13.535-32.519 0-25.305-20.575-45.893-45.864-45.893s-45.893 20.587-45.893 45.893c0 12.695 5.183 24.2 13.542 32.517-8.614 2.323-16.275 5.542-22.841 9.522-5.356-8.391-14.562-14.813-26.604-18.6 4.769-5.741 7.642-13.112 7.642-21.142 0-18.288-14.865-33.166-33.137-33.166s-33.165 14.878-33.165 33.166c0 8.038 2.881 15.414 7.662 21.158-19.345 6.118-31.24 19.036-31.838 35.458a5.332 5.332 0 0 0-.004.219v24.01a6.009 6.009 0 0 0 6.009 6.009zM363.277 31.028c11.66 0 21.146 9.487 21.146 21.147s-9.486 21.118-21.146 21.118-21.119-9.474-21.119-21.118 9.474-21.147 21.119-21.147zM350.32 82.671c3.982 1.698 8.362 2.64 12.957 2.64s9.001-.947 12.994-2.652c15.55 2.68 31.724 10.917 32.361 26.465v17.885h-71.847c-1.807-10.748-7.312-20.236-15.888-27.926 4.816-8.071 15.427-14.026 29.423-16.412zM222.14 49.878c0-18.678 15.196-33.874 33.874-33.874S289.86 31.2 289.86 49.878s-15.183 33.875-33.846 33.875-33.874-15.196-33.874-33.875zm33.874 45.893a45.544 45.544 0 0 0 18.712-4.01c24.207 3.971 49.714 16.881 50.68 41.709v29.17H186.594v-29.17c.967-24.832 26.481-37.742 50.692-41.711a45.603 45.603 0 0 0 18.728 4.011zM148.723 31.028c11.645 0 21.119 9.487 21.119 21.147s-9.474 21.118-21.119 21.118-21.146-9.474-21.146-21.118 9.486-21.147 21.146-21.147zm-45.326 78.098c.637-15.546 16.796-23.781 32.34-26.463 3.991 1.703 8.38 2.649 12.987 2.649s8.976-.942 12.958-2.641c13.995 2.383 24.606 8.338 29.422 16.413-8.576 7.691-14.081 17.178-15.888 27.926h-71.82v-17.884z"></path></g></svg>